<!--?xml version="1.0" encoding="utf-8"?-->
<!-- Generator: Adobe Illustrator 18.1.1, SVG Export Plug-In . SVG Version: 6.00 Build 0)  -->

<svg version="1.1" id="_x32_" xmlns="http://www.w3.org/2000/svg" xmlns:xlink="http://www.w3.org/1999/xlink" x="0px" y="0px" viewBox="0 0 512 512" style="width: 256px; height: 256px; opacity: 1;" xml:space="preserve">
<style type="text/css">
	.st0{fill:#4B4B4B;}
</style>
<g>
	<path class="st0" d="M486.498,397.919c-2.194-5.987-5.88-11.916-11.106-16.888c-5.578-5.285-12.988-10.94-21.608-17.034
		c-12.871-9.078-28.237-18.809-41.986-26.862c-6.874-4.027-13.338-7.625-18.945-10.521c-5.695-2.916-10.19-5.08-14.606-6.543
		c-3.686-1.209-7.479-1.746-11.164-1.746c-11.116,0.078-21.002,4.514-29.281,10.891c-8.239,6.465-15.065,15.163-19.014,25.634
		c-0.497,1.336-0.976,2.369-1.414,3.227c-11.935-7.693-41.313-29.504-84.537-80.793c-29.69-35.238-46.812-61.73-56.417-79.086
		c-4.368-7.917-7.128-13.836-8.873-17.921c0.927-0.292,2.029-0.585,3.443-0.848c12.002-2.33,22.504-8.347,30.578-16.421
		c4.027-4.066,7.458-8.698,9.984-13.913c2.505-5.207,4.134-11.067,4.134-17.327c0-1.676-0.117-3.354-0.36-5.05
		c-0.458-3.101-1.229-6.153-2.242-9.771c-3.55-12.471-10.424-31.055-18.117-49.396c-3.841-9.156-7.878-18.175-11.808-26.219
		c-3.949-8.064-7.693-15.065-11.427-20.661c-5.362-8.034-12.861-13.514-20.388-16.576c-7.557-3.1-15.132-4.086-21.997-4.095
		c-6.397,0-12.237,0.858-17.24,2.067c-2.506,0.604-4.798,1.306-6.903,2.087c-2.126,0.799-4.018,1.618-6.064,2.836l0.029-0.019
		c0,0-0.029,0.019-0.039,0.029l-0.517-0.858l0.137,1.072c-0.761,0.439-2.418,1.375-4.446,2.594
		c-8.98,5.402-26.551,16.927-42.278,35.969c-15.708,18.965-29.583,46.13-29.534,80.871c0,7.41,0.624,15.152,1.96,23.197
		c14.607,87.793,55.92,160.328,103.024,216.227c47.104,55.89,111.584,108.933,195.644,138.204
		c15.474,5.383,30.275,7.723,44.053,7.723c33.132-0.01,59.625-13.368,77.984-26.941c9.225-6.806,16.517-13.719,21.851-19.316
		c2.662-2.798,4.836-5.265,6.484-7.196c1.618-1.891,2.857-3.422,3.081-3.675c1.941-2.292,3.286-4.485,4.71-7.108
		c4.057-7.752,8.132-18.917,8.229-32.226C489.51,409.931,488.702,403.916,486.498,397.919z M52.443,126.649
		c0.01-15.308,3.374-28.247,8.552-39.49c7.732-16.819,19.793-29.788,30.646-38.836c5.412-4.524,10.482-8.044,14.47-10.599
		c1.989-1.278,3.715-2.301,5.09-3.11c1.384-0.81,2.32-1.327,3.286-1.902c0.204-0.146,2.476-1.062,5.216-1.668
		c2.799-0.633,6.25-1.101,9.644-1.091c3.91-0.02,7.673,0.614,10.568,1.832c2.936,1.248,5.032,2.789,6.943,5.588
		c2.74,4.047,6.786,11.574,10.94,20.33c6.28,13.202,13.056,29.446,18.37,43.604c2.652,7.069,4.954,13.632,6.631,18.956
		c1.686,5.246,2.75,9.584,2.886,10.735l0.049,0.77c0.01,0.994-0.272,2.477-1.15,4.3c-1.287,2.72-3.969,6.016-7.478,8.628
		c-3.501,2.633-7.733,4.564-11.711,5.305c-5.324,1.014-9.887,2.506-13.836,4.514c-5.909,2.954-10.395,7.343-12.881,11.867
		c-2.535,4.524-3.051,8.718-3.042,11.194l0.078,1.696l0.468,2.496c0.673,2.467,12.149,41.722,73.753,114.822
		c61.604,73.1,98.344,91.06,100.665,92.142l2.535,0.927c1.014,0.264,2.74,0.614,5.08,0.614c4.094,0.079,10.286-1.365,15.65-5.655
		c5.41-4.25,9.75-10.628,12.978-19.266c1.706-4.652,5.275-9.341,9.37-12.5c4.076-3.237,8.493-4.641,10.872-4.563l1.901,0.263
		c0.712,0.225,2.887,1.102,5.578,2.408c9.653,4.603,26.532,14.305,42.444,24.474c7.986,5.09,15.787,10.326,22.436,15.124
		c6.64,4.768,12.198,9.204,15.288,12.158c1.823,1.755,2.876,3.491,3.656,5.568c0.771,2.067,1.17,4.514,1.17,7.254
		c0.02,4.29-1.062,9.194-2.515,13.154c-0.712,1.97-1.512,3.705-2.174,4.953l-0.839,1.443l-0.176,0.254
		c-0.887,1.043-1.736,2.107-3.149,3.764c-4.788,5.635-14.879,16.595-29.213,25.936c-14.353,9.37-32.546,16.996-54.32,17.006
		c-10.424-0.01-21.753-1.736-34.205-6.066c-77.838-27.087-138.087-76.415-182.578-129.214
		c-44.492-52.808-82.88-120.535-96.394-201.835C52.922,138.466,52.443,132.392,52.443,126.649z" style="fill: rgb(75, 75, 75);"></path>
</g>
</svg>
